<svg height="64" viewBox="0 0 64 64" width="64" xmlns="http://www.w3.org/2000/svg"><path d="m47.05 56.6a5.1 5.1 0 0 1 -1.05-.12 4.69 4.69 0 0 1 -3.7-3.09c-1.65-1.15-7.31-5-11.44-7.83h-.24a4.34 4.34 0 0 1 -4.13-3.1 4 4 0 0 1 .12-3.33 4.4 4.4 0 0 1 1.76-1.71l.45-6.42a4.62 4.62 0 0 1 -.81-.94 3.75 3.75 0 0 1 -.6-1.63l-5.28-3.7h-.08a5.12 5.12 0 0 1 -4.19-1.92 4.38 4.38 0 0 1 -.59-4.3l-1-2.22a4.22 4.22 0 0 1 -1.87-.48 3.42 3.42 0 0 1 -1.52-1.6h-1a7 7 0 0 1 -.8 1.3 3.83 3.83 0 0 1 -3.08 1.36 4.78 4.78 0 0 1 -4.58-2.87 4.47 4.47 0 0 1 .49-4 5 5 0 0 1 3.88-2.26h.29a3.91 3.91 0 0 1 3.37 1.83h2a4.58 4.58 0 0 1 .78-1.14 4.63 4.63 0 0 1 3-1.06 4.14 4.14 0 0 1 3.35 1.63 4.89 4.89 0 0 1 .42 4.93l.58 1.86a4.4 4.4 0 0 1 4 2.27 4.87 4.87 0 0 1 .52 3.2l4 2.44a4.61 4.61 0 0 1 2.43-.7 4.91 4.91 0 0 1 2.23.56 4.64 4.64 0 0 1 2.65 4c2.68 1.14 10.54 4.36 16.22 6.69a10.73 10.73 0 0 1 1.16-.24 7.64 7.64 0 0 1 .83 0c2.6 0 4.5 1.66 5.1 4.45a4.38 4.38 0 0 1 -.72 3.54 5.63 5.63 0 0 1 -3.32 1.93l-5.54 7.62a6.92 6.92 0 0 1 .16 1.18 4.32 4.32 0 0 1 -4.25 3.87z" fill="#fff"/><path d="m59.05 38.69c-.71-3.37-3.34-3.15-4-3.06a11.22 11.22 0 0 0 -1.5.34s-17.75-7.25-17.84-7.37a3.34 3.34 0 0 0 -1.71-3.6 3 3 0 0 0 -3.78.75l-6.22-3.75a3.6 3.6 0 0 0 0-3.16 2.91 2.91 0 0 0 -2.87-1.38 4.41 4.41 0 0 0 -.78.22l-1.22-3.93s1.31-2.19.09-3.75-3.44-.79-3.84-.38a6.61 6.61 0 0 0 -.88 1.66l-4.15-.07a2.41 2.41 0 0 0 -2.45-1.77 3.07 3.07 0 0 0 -2.9 3.94c.69 1.91 3.78 2.31 4.72 1.09a3.06 3.06 0 0 0 .85-2s3.71 0 3.68.1a1.85 1.85 0 0 0 1 1.72 3 3 0 0 0 2.13.15l1.78 4.1a2.78 2.78 0 0 0 .06 3.22 3.77 3.77 0 0 0 3.4 1.24l6.56 4.6a1.65 1.65 0 0 0 .25 1.53 2.51 2.51 0 0 0 1.16 1l-.59 8.47s-2.87.69-1.91 3.28a2.62 2.62 0 0 0 3.19 1.91s12.5 8.5 12.53 8.59a2.89 2.89 0 0 0 2.57 2.44 2.67 2.67 0 0 0 3.28-2.1 12.44 12.44 0 0 0 -.28-1.56l6.4-8.81s3.99-.28 3.27-3.66zm-10.68 11.44a2.31 2.31 0 0 0 -1.91-.41 9.35 9.35 0 0 0 -1.37.63l-11.94-7.13s1.5-1.53.56-3a3.38 3.38 0 0 0 -2-1.65s.19-7.63.25-7.63a2.62 2.62 0 0 0 1.84-.19c1.1-.46 1.2-.75 1.2-.75s8.6 4.15 12 5.53 5.91 2.31 5.91 2.31a2.23 2.23 0 0 0 .34 2.06 5.15 5.15 0 0 0 1.41 1.63z" fill="#1d1d1b"/><path d="m6.8 11a1.67 1.67 0 0 1 2.63 1.35c.12 1.59-1.31 2.06-2.47 1.25a1.62 1.62 0 0 1 -.16-2.6z" fill="#cbe7f5"/><g fill="#ffe19b"><path d="m15.9 10.47a1.66 1.66 0 0 1 2.62 1.35c.13 1.59-1.31 2.06-2.47 1.25a1.62 1.62 0 0 1 -.15-2.6z"/><path d="m20.55 18.94a1.67 1.67 0 0 1 2.63 1.35c.12 1.59-1.31 2.06-2.47 1.25a1.62 1.62 0 0 1 -.16-2.6z"/><path d="m31.3 26.35a2 2 0 0 1 3.19 1.5c.13 1.59-2 2.19-3.19 1.37a1.84 1.84 0 0 1 0-2.87z"/></g><path d="m56.59 37a2 2 0 0 1 .48 3.49c-1.27 1-2.94-.51-2.89-1.92a1.84 1.84 0 0 1 2.41-1.57z" fill="#cbe7f5"/><path d="m29.84 40a1.76 1.76 0 0 1 2.77 1.3c.11 1.39-1.76 1.9-2.77 1.2a1.6 1.6 0 0 1 0-2.5z" fill="#cbe7f5"/><path d="m45.69 51.07a1.76 1.76 0 0 1 2.77 1.3c.1 1.39-1.77 1.9-2.77 1.2a1.59 1.59 0 0 1 0-2.5z" fill="#ffe19b"/></svg>