<svg height="64" viewBox="0 0 64 64" width="64" xmlns="http://www.w3.org/2000/svg"><path d="m25.92 51.56c-4.09 0-4.25-.1-4.7-.38-.64-.4-1-.8-1.2-4-3.25-.36-4.6-.61-5.19-1.18a22 22 0 0 1 -4.81.46c-1 0-3.48 0-3.48-2 0-.11 0-.59 0-1.3-.34-13-.23-13.07.65-13.75.31-.24.67-.52 3.65-.8 0-1.67.23-2.5 1.39-2.8a3 3 0 0 1 .68-.06h1.15c-.06-3 .18-3.79 1.1-4.29a1.49 1.49 0 0 1 .44-.18 1.62 1.62 0 0 1 -.68-1.21c-.74-6-.49-6.9.9-7.36a27.91 27.91 0 0 1 4.18-.27c1.89 0 3.85 0 4 1.81 0 .3.08 1.69.12 2.93h1.38c.9 0 2.26 0 2.73 1.25a4.87 4.87 0 0 1 .2 1.54c0 .21 0 .53.05.83 1.08 0 2.66.09 3.89.09 0-2.38.26-2.81.83-3.27s.63-.5 4.24-.56c0-2.66.18-2.94.44-3.31.5-.7 1-1 4.67-1 2.7 0 4.83 0 4.83 2a26.39 26.39 0 0 1 -.27 5.06c2.13.26 2.33.7 2.52 1.56a12.68 12.68 0 0 1 0 2.78v1.45c2.33.07 3.65.39 3.81 1.87 0 .25.05 1.09.05 2.05 2.83.16 3.76.61 4.07 1.74a62.86 62.86 0 0 1 -.1 7.32c-.33 7.52-.57 7.63-1.58 8.09a5.15 5.15 0 0 1 -2.23.26c-3 0-3.94-.23-4.43-.74a1.38 1.38 0 0 1 -.51.75c-.45.4-.72.63-4.62.67.16 2 0 3-1.22 3.46-.68.23-7.49.43-8.88.43-.57 0-1.05 0-1.38 0a3.3 3.3 0 0 1 -.78-.14c-.39.12-1.29.2-5.91.2z" fill="#fff"/><path d="m12.53 30.15a14.26 14.26 0 0 1 .09-2.71c.16 0 3.16.09 3.16 0s-.2-4.25.17-4.46a42.49 42.49 0 0 1 4.58-.41v-2.5s-3.87.16-3.91-.17-.63-5.42-.25-5.54 6-.38 6 .08.16 4.59.16 4.59 4-.34 4.17 0 .08 3.37.5 3.41 6.92.29 6.92 0a19.59 19.59 0 0 1 .21-3.54c.2-.16 4.91-.21 4.91-.21a26.21 26.21 0 0 1 .09-4c.2-.29 6.41-.33 6.41.05a49.43 49.43 0 0 1 -.37 5.2c-.17 0-4.92.09-4.92.09v1.12s7.54.21 7.62.59-.2 5.54 0 5.54 3.75 0 3.79.37 0 3.5 0 3.5 4 .09 4.12.54-.29 13.21-.75 13.42a16 16 0 0 1 -4.75-.17c-.12-.25 0-8.5-.21-8.58s-2.54 0-2.54 0 .25 9-.08 9.33-5.38.25-5.38.25.38 3.46.13 3.54-10.09.59-10.09.21-.08-5 .3-5.21 7.25-.2 7.2-.41 0-1.84-.12-1.88-15.69.17-15.69.42a6.42 6.42 0 0 0 0 1.79c.13 0 7.17.17 7.21.29a34.05 34.05 0 0 1 0 5.05 85.93 85.93 0 0 1 -9.08 0c-.34-.21-.46-4.09-.46-4.09s-5.54-.58-5.58-.87 0-8.34-.17-8.46a3.69 3.69 0 0 0 -1.67 0c0 .13.17 8 0 8.08s-6 .67-6 0-.42-13.4-.05-13.66a25.8 25.8 0 0 1 4.33-.59z" fill="#1d1d1b"/><g fill="#c8db89"><path d="m10.12 32.32a13.49 13.49 0 0 1 2.46-.32s.12 11 0 11-2.38.33-2.46 0-.12-10.47 0-10.68z"/><path d="m14.58 29a1.47 1.47 0 0 1 1.12 0c0 .12.08 5.58 0 5.58s-1.08.21-1.13 0-.12-5.47.01-5.58z"/><path d="m18.24 15.78c.18-.12 2.25-.13 2.34.12a8.13 8.13 0 0 1 0 2.42 23 23 0 0 1 -2.34 0 6.06 6.06 0 0 1 0-2.54z"/><path d="m41.08 16a9.9 9.9 0 0 1 2.58.12 9.92 9.92 0 0 1 -.08 2.21 13 13 0 0 1 -2.5 0 19.4 19.4 0 0 1 0-2.33z"/></g><path d="m22.24 20.57a13.52 13.52 0 0 1 2.84-.13 25.27 25.27 0 0 0 .29 3.71c.16 0 10.37-.08 10.41-.29s.21-3.25.34-3.37a7 7 0 0 1 2.5 0c0 .16-.13 2.41.08 2.46s7.17.25 7.25.41-.17 9.21-.17 9.21-1.54-1.67-1.66-1.5-.5.67-.34.75a14.21 14.21 0 0 1 2 2 11.15 11.15 0 0 1 0 1.67 22.17 22.17 0 0 0 -2.46-2c-.09.12-.34.66-.21.79s2.67 2.5 2.67 2.66 0 1.46 0 1.46a29.93 29.93 0 0 0 -2.54-1.79c-.12 0-.46.88-.29.92a14.88 14.88 0 0 1 2.79 1.79c0 .25.09 1.46.09 1.46s-2.71-1.78-2.83-1.78-.21.87-.21.87a25.8 25.8 0 0 1 3 2.17 8.81 8.81 0 0 1 0 1.25 18.78 18.78 0 0 0 -2.58-1.63c-.13.13-.38.67-.17.75s1.88 1.42 1.71 1.46a12.26 12.26 0 0 1 -2.75.08c0-.16 0-3.58-.17-3.62s-8.08-.21-9.91-.13-9.63.5-9.75.8.12 2.75 0 2.75a36 36 0 0 1 -4.3-.34c-.12-.16-.5-18.75-.12-18.87s4.54-.25 4.54-.38-.01-3.47-.05-3.59z" fill="#8ec480"/><path d="m21.62 27.65a21.2 21.2 0 0 1 5.71-.21 38.53 38.53 0 0 1 .12 5.75 36.53 36.53 0 0 1 -5.71.13 43.08 43.08 0 0 1 -.12-5.67z" fill="#1d1d1b"/><path d="m23.58 29.19a3.86 3.86 0 0 1 1.91 0c0 .13.29 2.17 0 2.3a4.59 4.59 0 0 1 -2 .08 14.46 14.46 0 0 1 .09-2.38z" fill="#fab900"/><path d="m35.28 27.28a21.23 21.23 0 0 1 5.72-.21 37.28 37.28 0 0 1 .13 5.75 37.8 37.8 0 0 1 -5.71.12 43 43 0 0 1 -.14-5.66z" fill="#1d1d1b"/><path d="m37.24 28.82a3.67 3.67 0 0 1 1.92 0c0 .12.29 2.17 0 2.29a4.44 4.44 0 0 1 -2 .08 15.54 15.54 0 0 1 .08-2.37z" fill="#fab900"/><path d="m19 25.9c0 .26 1-.21 1 0s.21 4.09.09 4.17-1 .21-1 0-.09-4.25-.09-4.17z" fill="#1d1d1b"/><path d="m48 28.65c.12-.12 2-.25 2 .09s0 5.79-.21 5.79a10.7 10.7 0 0 1 -2.08-.09c-.05-.12.16-5.7.29-5.79z" fill="#c8db89"/><path d="m52.37 32.82c.2-.07 1.83-.13 1.87.08s-.54 10.42-.71 10.5a5.45 5.45 0 0 1 -1.25 0s-.04-10.54.09-10.58z" fill="#c8db89"/><path d="m23.83 45.94a42.27 42.27 0 0 1 5.7.13v2.25l-5.71-.13a10 10 0 0 1 .01-2.25z" fill="#c8db89"/><path d="m34.12 46.15a56.06 56.06 0 0 1 6-.21c0 .17.16 1.84 0 1.92s-6.12.14-6.12.14 0-1.81.12-1.85z" fill="#c8db89"/></svg>