<svg height="64" viewBox="0 0 64 64" width="64" xmlns="http://www.w3.org/2000/svg"><path d="m8.76 61.44a2 2 0 0 1 -.76-.15 2.09 2.09 0 0 1 -1.17-1.47 2.07 2.07 0 0 1 -.83-.52 2.68 2.68 0 0 1 -.65-2.25 1.71 1.71 0 0 1 1.24-1.39l.77-.2a2.26 2.26 0 0 1 2.07-1.86h.18a2.38 2.38 0 0 1 1.9 1.72 1.91 1.91 0 0 1 1.84 1.4 1.81 1.81 0 0 1 -.38 1.6 2 2 0 0 1 -.19 1.56 1.82 1.82 0 0 1 -1.59.87 3.39 3.39 0 0 1 -.73-.09 2.57 2.57 0 0 1 -1.7.78zm44.49-.21a4.47 4.47 0 0 1 -2.52-.73 3.41 3.41 0 0 1 -1.41-3.33 3.82 3.82 0 0 1 .84-1.88 24.49 24.49 0 0 1 -3.82-.29l-1.05-.17-1.47-.25c1.15.38 2.06.67 2.35 1.74a3.21 3.21 0 0 1 -1.44 3.4 14.26 14.26 0 0 1 -6.44 1.28 21.19 21.19 0 0 1 -7.71-1.45 21.25 21.25 0 0 1 -11.41-9.88 5.45 5.45 0 0 0 .77 3.52 14.69 14.69 0 0 0 2.93 3.62 2.8 2.8 0 0 1 1 1.29 2.22 2.22 0 0 1 -.31 1.9 2.48 2.48 0 0 1 -1.8 1h-.19c-.53 0-1.19 0-3.4-2.65a18.53 18.53 0 0 1 -2.8-4.33 9.78 9.78 0 0 1 -.57-2.02 1.75 1.75 0 0 1 -.22.4 3 3 0 0 1 -2.35 1.09 2.14 2.14 0 0 1 -1.41-.49c-.54-.45-4.47-5.12-4.28-10.2a26.86 26.86 0 0 1 3.38-11.25 4.77 4.77 0 0 0 -.54.48c-1 1-1.51 1.66-1.86 2.09a2.44 2.44 0 0 1 -1.91 1.19 1.85 1.85 0 0 1 -.57-.1s-2.63-.89-2.63-2.69c0-.8 1.6-8.76 7.32-12.25a28 28 0 0 1 10.47-3.93l.62-.12a24.55 24.55 0 0 1 3.35-.31c-.78-1.88-1.92-3.76-3.08-4.1a12.06 12.06 0 0 0 -2.8-.61h-.23a4 4 0 0 1 -.49 0h-.11a3.74 3.74 0 0 1 -.54.05 2.43 2.43 0 0 1 -.38 0c1.48.4 2.9 1.16 2.9 2.51a3 3 0 0 1 -.59 1.73 1.7 1.7 0 0 1 -1.36.68 1.73 1.73 0 0 1 -.73-.17 7.47 7.47 0 0 0 -2.76-.51 5.45 5.45 0 0 0 -1.09.1 19.44 19.44 0 0 0 -2.94.89 4.08 4.08 0 0 1 -1.44.37 2.42 2.42 0 0 1 -.47-.06 2.55 2.55 0 0 1 -1.69-2 1.74 1.74 0 0 1 .06-1.52c.54-1 2.69-1.68 4.34-2a2.19 2.19 0 0 1 -1.4-2.18c-1.1-.63-1.95-1.33-1.71-2.49s1.11-1.38 2.05-1.6c.07-1.05.35-2.43 1.89-2.43a2.07 2.07 0 0 1 .49.07c.58.17 1 .51 1.63 1.77a2 2 0 0 1 1.28.94 2.27 2.27 0 0 1 .32 1.31 2.53 2.53 0 0 1 1.14-.66 19.62 19.62 0 0 1 6.24-.93 28.41 28.41 0 0 1 4.61.39c6.12 1 11.09 4.18 13.64 8.59a6.62 6.62 0 0 0 -.95-2.18 21.89 21.89 0 0 0 -3.32-3.64 2.66 2.66 0 0 1 -.53-.57 1.69 1.69 0 0 1 .47-2.35 3.12 3.12 0 0 1 1.82-.7c1.4 0 4.87 3.13 6.18 6.7.25.69 2.4 6.78-.09 8a2.6 2.6 0 0 1 -1.16.31 1.73 1.73 0 0 1 -.32 0 22 22 0 0 1 .42 2.17 8 8 0 0 0 3.27-2.93 18.85 18.85 0 0 0 2.26-5.86 4.5 4.5 0 0 1 .38-1.27c-1-.46-1.14-1.53-1.2-2.55a3.63 3.63 0 0 1 -1.24-.91 2.1 2.1 0 0 1 -.45-1.77 1.85 1.85 0 0 1 1.78-1.5 2.07 2.07 0 0 1 1.62-1.63h.34a2.76 2.76 0 0 1 2.23 1.63 2 2 0 0 1 1.92 1.63 2.55 2.55 0 0 1 -.38 1.72l-.12.88a1.69 1.69 0 0 1 -.48 1 2.7 2.7 0 0 1 1.2.86c1.24 1.53 2.28 6.77 1.79 12.55-.08 1-.19 1.94-.31 2.8a2.44 2.44 0 0 1 .85-.76 2 2 0 0 1 .82-.19 3.06 3.06 0 0 1 2.3 1.2 1.89 1.89 0 0 1 .15 1.59v.12a12.8 12.8 0 0 1 -2.41 4.52 10.78 10.78 0 0 1 -2.25 2.08 1.71 1.71 0 0 1 -2.26-.54l-.07-.12a16.9 16.9 0 0 1 -1.35 1.66c-.3.32-.58.61-.85.86h.91a32.3 32.3 0 0 0 4.82-.74 12.47 12.47 0 0 1 2.26-.36 2.29 2.29 0 0 1 .66.09c2 .62 1.7 3.47 1.42 4.43-.38 1.32-4.53 6.23-10.36 8.26a26.21 26.21 0 0 1 -6.41 1.31 11.18 11.18 0 0 0 3 .81c.4 0 .88.06 1.43.06 1 0 2-.06 2.85-.11.66 0 1.21-.07 1.59-.07a2.81 2.81 0 0 1 1.1.18v-.08a1.76 1.76 0 0 1 1.43-1.72c.27-1 .8-1.94 2-1.94h.19a2.42 2.42 0 0 1 1.86 1.55 2.41 2.41 0 0 1 1.34.79 2.26 2.26 0 0 1 .44 1.81 2.1 2.1 0 0 1 -.84 1.37 1.73 1.73 0 0 1 -1 1.86 2.19 2.19 0 0 1 -1 .23c-.13 0-.26 0-.38 0a2.45 2.45 0 0 1 -1.19.34 1.9 1.9 0 0 1 -.85-.2l.09.1a3.76 3.76 0 0 1 1 2.86 3.86 3.86 0 0 1 -4.15 3.56zm1.92-7.23a3.84 3.84 0 0 1 .53.28 1.8 1.8 0 0 1 -.38-.69 2.48 2.48 0 0 1 -.15.41zm-19.52-4.75a8.47 8.47 0 0 0 3 3.12c.62.36 1.21.66 1.76.92a1.94 1.94 0 0 1 -.42-1 3 3 0 0 1 .7-2.38 24.12 24.12 0 0 1 -4.69-.58zm-17.87-5.37a6.87 6.87 0 0 0 -1.58 1.36 5.23 5.23 0 0 0 -.79 1.45 5.17 5.17 0 0 1 .86-1.36 1.9 1.9 0 0 1 1.41-.61h.18c-.03-.28-.06-.56-.08-.84zm-3.3-32.95a13 13 0 0 1 1.75.29 2.06 2.06 0 0 1 -1.05-.84l-.06.08a2 2 0 0 1 -.64.47zm-1.91-.14-.19.16h.44z" fill="#fff"/><path d="m32.57 24.68c0 .25.75.25.75.25s.21-.54-1-5.83-3.5-8.21-3.67-8.29a8.42 8.42 0 0 0 -1.37-.13 41.46 41.46 0 0 1 2.87 4.59c1.42 2.91 2.42 9.16 2.42 9.41zm2.43-.25c.08.17.42.13.58.09a14.9 14.9 0 0 0 -.45-5 41.77 41.77 0 0 0 -2.25-6.38c-.13-.21-.75-.12-1-.12a32.68 32.68 0 0 1 1.83 4.58 50.41 50.41 0 0 1 1.29 6.83zm2.29.5c0 .13.42.21.59.25s.25-.33.12-2.66a15.59 15.59 0 0 0 -.62-4.42c-.21-.21-1-.17-1-.17a24.53 24.53 0 0 1 .58 3c.28 1.75.32 3.88.36 4zm9 3.42a10.07 10.07 0 0 0 4.08-3.79c0-.21-.08-.42-.33-.38s-1.29 1.34-3.75 3a7.32 7.32 0 0 1 -4.37 1.29 1.64 1.64 0 0 0 .12.88 7.82 7.82 0 0 0 4.24-1zm-1.13 3.65c3-.55 4.2-2.25 4.29-2.5s.08-.67-.09-.67a22 22 0 0 1 -3.2 1.83c-1.84.75-4.39.39-4.55.54a3.55 3.55 0 0 0 -.29 1.13c.04.27.88.23 3.84-.33zm-1.59 2.41c-1.25 0-1.58-.16-1.71-.25s-.41.79-.29 1 0 0 .75.17a6.71 6.71 0 0 0 2.42-.25c.25-.09.29-.67.33-.79s-.25.1-1.5.14zm-5.41 2.59c0 .2.7 2.12 3.5 3.95s8.62 1.67 9.16 1.63.54-.71.54-.92-.29.09-1.87.09a21.45 21.45 0 0 1 -7.25-1.63c-1.92-1-3.33-3.83-3.33-3.83s-.71.52-.75.71zm1 4.41a17.84 17.84 0 0 1 -3.38-4.37 1.54 1.54 0 0 0 -.75 0c-.21.12.38 2.21 3.13 4.75a9.18 9.18 0 0 0 6.08 2.71c.46-.09.21-.29.17-.54s-2.92-.49-5.21-2.53zm-3.17.5a11.13 11.13 0 0 1 -2.33-4.54s-.65-.52-.84-.29-.08 1.33 1.25 3.58a9.22 9.22 0 0 0 3.25 3.5c.38.13.5 0 .59-.16s-.13-.15-1.91-2.07zm-4.42-4.46c.05-.12-.7-.29-.7-.16a10.14 10.14 0 0 0 .7 4.58c.21.25 1 .29 1.13.08s-.54-.83-.88-1.91a7.57 7.57 0 0 1 -.21-2.57zm-1.5-.37s-.48-.91-.75-.83-.66 1.95-.91 3.12a13.43 13.43 0 0 0 .41 7.21c1.13 3.71 5 8.71 5 8.71s.34-.13.38-.42-3-4.79-4.58-8.5.49-9.27.49-9.27zm-1.7-2.42s-.29-.57-.5-.5c-.38.13-1.75 2.75-2.3 7.63s2.3 10.79 2.5 10.91.71.25.8 0-2.09-4.25-2.5-9.16a15.91 15.91 0 0 1 2.04-8.86zm-4.37 5.11a11.77 11.77 0 0 1 2.67-6.42s-.09-.56-.29-.5c-.59.17-2.67 3-3.17 5.5a24 24 0 0 0 .12 7.08c.13.21.67.21.8.13a34.15 34.15 0 0 1 -.13-5.79zm-1.54-5c-.21.16-1.75 2.54-1.83 2.66s.37.25.62.3 1.58-2.71 1.58-2.71-.13-.38-.34-.21zm3.33-3.59c-.16-.12-4.21 1.55-8.16 4.3a21.72 21.72 0 0 0 -6.21 7.12s.62.46.87.42 1.64-3.42 4.59-6 8.75-5.09 8.91-5.17.21-.5.03-.63zm-12.18 5.75a24.07 24.07 0 0 1 5.17-4.83c2.83-2 7.38-2.67 7.38-2.67s.12-.54 0-.66a17.94 17.94 0 0 0 -7.46 2.45 25 25 0 0 0 -6 5.42s.5.75.5.75a1.26 1.26 0 0 0 .41-.46zm11.21-10.62c-1.41.12-4.17.41-4.33.46s-.29.95-.29 1.08.46-.08 2-.5a15.94 15.94 0 0 1 4.29-.17 1.14 1.14 0 0 0 .21-.5c0-.21-.46-.5-1.88-.37zm-6-1.25c0-.21-1.33-.71-3.83-.42a33.79 33.79 0 0 0 -4.25.75s-.25.71-.21.88 1.47-.27 3.47-.63a15.78 15.78 0 0 1 4.71.17c.15 0 .2-.54.15-.75zm-1.45-2.25a28.64 28.64 0 0 1 6.63.19c4.17.5 5.33 2.33 5.33 2.33l.88-.38s-1-1.95-5.42-2.91a19.11 19.11 0 0 0 -8.62 0c-.38.17-1 .7-.84.75a18.79 18.79 0 0 0 2.08.02zm13.63 1.41h.5s.38-.62-1.33-2.29a7.11 7.11 0 0 0 -4.17-1.93 6.06 6.06 0 0 0 -1.67.54s1 .21 3.17.71 3.5 2.97 3.5 2.97zm-22.51-9.08c.33.08 1.54-.67 4.08-1.21a8.62 8.62 0 0 1 4.92.59 1.38 1.38 0 0 0 .25-.71c0-.38-2.42-1.5-5.17-1.17s-4.69 1.36-4.57 1.46.16.96.49 1.04zm2.51-7.08s0 1.5.25 1.54.83-1.17.83-1.17 1.46 1.21 1.71.92-.5-1.67-.46-1.88.46-.83.21-1.25-.87.09-.87.09-.79-2-1.09-2-.17 1.92-.29 2-2 .41-2 .62 1.71 1.13 1.71 1.13zm43.2 24.75.5.75a13.58 13.58 0 0 0 1.75-1.79 11.69 11.69 0 0 0 2.12-4.13c.09-.17-.76-.53-.91-.46-.42.21-.92 1.67-1.38 3a7.36 7.36 0 0 1 -2.08 2.63zm-4.5-25c.21 0 0 2.17.37 2.29s.93-1.1 1.09-1.25 1 .17 1 .17l.16-1.3s.42-.54.38-.79-1-.29-1.17-.25-.87-1.68-1.33-1.62-.38 1.46-.46 1.62-1.57-.13-1.63.13c-.11.58 1.38 1.04 1.59 1.04zm-8.29 3c1.66 2.38 1.7 6.54 1.75 6.83s.29.25.62.09.5-2.5-.75-5.92a11.32 11.32 0 0 0 -4.58-5.58 2.91 2.91 0 0 0 -.88.41 26.35 26.35 0 0 1 3.84 4.25zm-32 44.42c-.42 0-.63 1.33-.71 1.54l-1.7.54a1.09 1.09 0 0 0 .17.79c.25.25 1.21.21 1.21.21s0 1.29.29 1.41 1-.7 1.16-.87 1.34.37 1.46.17-.29-.92-.25-1.13.67-.58.63-.75-1.17-.17-1.34-.21-.47-1.58-.88-1.62zm44.16-3c-.12-.25-4 .29-6.5 0s-4.76-1.6-4.91-1.5a1.27 1.27 0 0 0 -.5 1.21c.08.58 2.16.83 4.91 1.29a23.77 23.77 0 0 0 7 0 1.25 1.25 0 0 0 .04-.92zm-.79 3.16c-2 .67-2.33 2.8-1.12 3.63s3.91.5 4-1.5a2.11 2.11 0 0 0 -2.84-2.05zm2.22 2.54c-.13.75-1.71 1.13-2.46.71s-.71-1.75.79-2.33c1.02-.42 1.74.87 1.67 1.62zm4.75-6.79a.56.56 0 0 0 .08-.75 1.56 1.56 0 0 0 -1-.25c-.21 0-.58-1.42-1-1.46s-.58 1.59-.63 1.84-1.2-.07-1.2.12c0 .54 1.16.88 1.16.88s-.37 1.33-.12 1.62 1-.46 1-.46.58.34.92.17-.38-1.29-.38-1.42.91-.16 1.12-.29zm-41.21 3c-2.17-3.5-.33-7.13-.29-7.33s-.53-.45-.67-.3c-1.17 1.3-1.58 4.5-.58 7s4.25 6 4.62 5.92.75-.33.63-.75-1.59-1.08-3.76-4.58zm19.33-.25c-4-2.29-5.25-7.42-5.08-7.58s1.25.83 3.62 1.41a26.86 26.86 0 0 0 13.8-.75c5.5-1.91 9.12-6.54 9.29-7.12s.25-2.17-.29-2.34-4.21.92-7.21 1.05-5.25-.42-5.21-.63a15.6 15.6 0 0 0 3.83-3.08c2.5-2.67 3.55-5.46 4-11.38s-.62-10.47-1.38-11.33-2.17-.08-2.42.38a24.74 24.74 0 0 1 -2.62 7.2 10.66 10.66 0 0 1 -6.2 4.46 19.8 19.8 0 0 0 -1.79-7.87c-2-4.63-6.84-8.09-13.13-9.13s-9.91.44-10.12.5c-.92.25-.55 1.29-.34 1.71s.5.17 1 .17.75-.34 4 .62 5 7.38 5 7.38a40.13 40.13 0 0 0 -5.37.33 27.14 27.14 0 0 0 -10.55 3.83c-5.12 3.13-6.5 10.42-6.5 10.8s1.21 1 1.46 1.08.5-.58 2.59-2.75a7.92 7.92 0 0 1 5.41-2.13h1.04a22.83 22.83 0 0 0 -3.09 3.34 24.67 24.67 0 0 0 -3.37 10.79c-.17 4.46 3.42 8.62 3.67 8.83s1.08 0 1.29-.29.08-1.12 0-1.83a9.13 9.13 0 0 1 1.66-5.38 13.25 13.25 0 0 1 4.55-3.08 21 21 0 0 0 .95 7.08c1.13 2.82 4.42 7.29 10.84 9.82s12 .8 12.62.38a1.51 1.51 0 0 0 .75-1.54c-.12-.49-2.75-.7-6.75-2.99zm2 3.71c-.17.16-6.58.12-10.83-2.54s-7.13-8.17-7.5-9.46-.54-5.13-.68-5.6-1.33-.8-2-.46-4.41 1.93-5.86 4.68-1.46 3.21-1.46 3.21a11.44 11.44 0 0 1 -1.17-8.37 21 21 0 0 1 6-9.71c1.3-.92 2.34-1.5 2.3-1.67a7.89 7.89 0 0 0 -4.75-1 19.63 19.63 0 0 0 -5.46 1.71 8.37 8.37 0 0 1 -1.63.88s2-3.88 3.92-5.42a24.76 24.76 0 0 1 11-4.46 43.91 43.91 0 0 1 6.79-.54.94.94 0 0 0 .37-.33s-.33-3.67-2.08-5.88a31.73 31.73 0 0 0 -3.83-3.92c.25-.08 8.75 0 12.63 4.42s4.37 10.38 4.44 11.17 0 1.66.38 1.79 2.41 0 5-1.67a12 12 0 0 0 4.25-4.29c1.08-1.62 2.25-4.75 2.62-4.83s1.68 6.16-.32 12.69-5.59 8.72-6.68 9-1.58.16-1.79.45.33 1.34.58 1.42-.08.92 4.88 1 7.83-.62 7.92-.37-2 3.71-6 5.16-9 2-11.09 1.67a37.7 37.7 0 0 1 -6.58-2c-.67-.33-1.33-.71-1.75-.46s-1.37 3.38.79 6.59a28.43 28.43 0 0 0 6.54 6.33c.71.52 1.18.6.96.77zm-7.42-31.6c-3.25.84-3.93 4.54-3.29 6.92 1 3.75 9.37 4.46 9.91-1.29s-3.56-6.44-6.62-5.63zm5 5.24c-.37 3.88-5.66 3.56-6.53 1.31s-.55-4.33 2.29-5.09c2.05-.58 4.59-.13 4.23 3.75z" fill="#1d1d1b"/></svg>