<svg height="64" viewBox="0 0 64 64" width="64" xmlns="http://www.w3.org/2000/svg"><path d="m24.91 52a4.91 4.91 0 0 1 -4-2.33 6.07 6.07 0 0 1 -.82-2.45l-9.78-7.74a5 5 0 0 1 -1.56.25 4.87 4.87 0 0 1 -3.07-1.11 4.43 4.43 0 0 1 -1.78-3.25 5.27 5.27 0 0 1 1.64-3.91 5 5 0 0 1 3.46-1.24 4.41 4.41 0 0 1 4.27 2.42 5.28 5.28 0 0 1 .42 2.71l9.51 7.36a3.87 3.87 0 0 1 1-.2h.46.05l5.69-10.91a4.8 4.8 0 0 1 1.11-4.2 4.09 4.09 0 0 1 3.16-1.45 4.56 4.56 0 0 1 3.85 2 3.92 3.92 0 0 1 .52 2.1l6.18 4.87 6.7-16a5.22 5.22 0 0 1 -.59-2.92 4.32 4.32 0 0 1 4.34-4 5 5 0 0 1 .84.07 4.15 4.15 0 0 1 3.07 2.18 5 5 0 0 1 .12 4.3 5 5 0 0 1 -3.1 2.56l-6.68 15.89a3.84 3.84 0 0 1 .51 3.61 4.21 4.21 0 0 1 -4.13 2.93 4.29 4.29 0 0 1 -2.66-.87 3.61 3.61 0 0 1 -1.11-3.42l-6.31-5.15a4.15 4.15 0 0 1 -.7.2 4.57 4.57 0 0 1 -1.07.11h-.13l-5.32 10.59a5 5 0 0 1 -.73 5.49 4.46 4.46 0 0 1 -3.36 1.51z" fill="#fff"/><path d="m56.24 13.74a2.62 2.62 0 0 0 -3.24 2.44 3.68 3.68 0 0 0 .78 2.56l-7.88 18.9-8.72-6.87a2.41 2.41 0 0 0 -.15-2 2.78 2.78 0 0 0 -4.25-.31 3.06 3.06 0 0 0 -.57 3.25l-6.56 12.62a3.44 3.44 0 0 0 -1.34-.12 2 2 0 0 0 -1.25.53l-11.32-8.74a2.85 2.85 0 0 0 0-2.69c-.72-1.72-3.9-1.72-5-.62s-1.9 3.09 0 4.62a3.27 3.27 0 0 0 3.82.22l11.21 8.87a4.09 4.09 0 0 0 .6 2.41 2.84 2.84 0 0 0 4.65.5c1.75-1.91.07-4.31.07-4.31l6.28-12.41a4.47 4.47 0 0 0 1.81.06 3.06 3.06 0 0 0 1.28-.56l8 6.5s-.72 1.94.28 2.75a2.71 2.71 0 0 0 4.1-1.25 2 2 0 0 0 -.94-2.62l7.5-17.82a3.79 3.79 0 0 0 2.78-1.81 2.85 2.85 0 0 0 -1.94-4.1zm-48 23.09a1.86 1.86 0 0 1 -.06-3.56 2 2 0 0 1 2.78 1.41 2 2 0 0 1 -2.75 2.15zm16 11.86a1.55 1.55 0 0 1 -.05-3 1.65 1.65 0 0 1 2.32 1.18 1.7 1.7 0 0 1 -2.28 1.82zm9.94-17.21a1.3 1.3 0 0 1 0-2.49 1.37 1.37 0 0 1 1.94 1 1.43 1.43 0 0 1 -1.95 1.49zm12 9.12a1.1 1.1 0 0 1 0-2.11 1.17 1.17 0 0 1 1.65.83 1.21 1.21 0 0 1 -1.68 1.28zm9.06-22.67a1.44 1.44 0 0 1 -.05-2.77 1.53 1.53 0 0 1 2.16 1.1 1.59 1.59 0 0 1 -2.14 1.67z" fill="#1d1d1b"/></svg>