<svg height="64" viewBox="0 0 64 64" width="64" xmlns="http://www.w3.org/2000/svg"><path d="m32.3 58.54c-.8 0-1.62 0-2.44-.12-9.37-.93-14.26-3.34-19.36-9.57-4.34-5.29-5.42-12.64-5.56-17.85a22.37 22.37 0 0 1 5.34-15.77c4.79-5.54 9-9.22 22.55-9.73h1.27c4.09 0 10.27.72 16.7 7 7.9 7.7 8.08 13.69 8.26 19.48a24.62 24.62 0 0 1 -7 17.89c-3.3 3.21-10.3 8.67-19.76 8.67z" fill="#fff"/><path d="m19.58 12.33c.26.06.92-.54 2.41-1.27s3.59-1.2 3.68-1.36a2.76 2.76 0 0 0 -.19-1.27 9.12 9.12 0 0 0 -3.61.89 10.2 10.2 0 0 0 -3.08 1.9c-.25.19.54 1.05.79 1.11zm12.53-4.41a23.26 23.26 0 0 0 -3.33.16c-.25.09-.22 1.2-.09 1.27a16.92 16.92 0 0 0 2.41-.16c.69-.1 2.66.06 2.91 0s.26-.57.26-.86-1.05-.33-2.16-.41zm8.12 2.73a7.28 7.28 0 0 1 2.44 1.35c.16.07.51-.57.51-.85s-1.9-1.21-2.5-1.4a12.72 12.72 0 0 0 -2.19-.57c-.29.06-.42 1.08-.32 1.17a11.56 11.56 0 0 0 2.06.3zm10.34 6.22c.16 0 .35-.51.35-.7a3.56 3.56 0 0 0 -1.62-1.59 31.81 31.81 0 0 0 -3-1.52 9.08 9.08 0 0 0 -.51.95 18 18 0 0 0 1.81.73c.75.35 2.81 2.13 2.97 2.13zm2.32 3.68a5.53 5.53 0 0 1 .82 2.12c.07.16.67.22 1 .13s.06-.8-.19-1.46a8.66 8.66 0 0 0 -1.43-2.48 1.32 1.32 0 0 0 -1.09.54c-.16.26.38.67.89 1.15zm1.55 4c0-.25-1.27-.33-1.49-.1s.38 2.89.54 3.18.38.69.7.76 1.17.47 1.39.38.13-.35.16-.79-.63-.77-1-1.08-.27-2.14-.3-2.39zm2.16 7.9c-.1-.41-2-.6-2-.13 0 .19-.32 4.66-.32 4.92s1.43.12 1.81.06.6-4.48.51-4.89zm-3.36 7.55c-.19.28-.13 1-.42 1.55s-.73 1.24-1 1.56.67.63 1.08.6 1.11-1 1.56-1.87.6-1.84.19-2.16-1.26.05-1.41.32zm-3.87 6.63c-.16.12-.89 1.23-1.46 1.84s-2 1.46-2.29 1.9.32.63.54.7.45-.19 1.4-.8a15.73 15.73 0 0 0 2.5-2.27c.23-.25.54-.73.39-1.07a1 1 0 0 0 -1.08-.34zm-7.74 6.34c-.22.13-1.81.7-2.83 1s-2.82.73-3.14.82-.28 1.11-.19 1.3.73.19 2.51-.09a13.79 13.79 0 0 0 4.35-1.62c.41-.38-.33-1.64-.7-1.45zm-15.74 1.03a6.83 6.83 0 0 1 -2.56-1.14c-.16-.07-.86 1-.89 1.23s.28.54 2.25 1.21a9.94 9.94 0 0 0 3.55.7c.22-.07.32-1 .29-1.33s-1.33-.47-2.64-.67zm-9-4.79c-1.14-.79-1.57-2.32-2.16-2.32a9.71 9.71 0 0 0 -1.4 1.11c-.19.25.42 1.11 1.62 2s2.41 2 2.86 1.93 1-1 1-1.46-.75-.47-1.89-1.25zm-7-12c-.19-.35-1.84.34-1.87.54a7.38 7.38 0 0 0 .22 2.6 8.13 8.13 0 0 0 1.4 2.54 1.67 1.67 0 0 0 1.62-.73c.19-.48-.51-.77-1.08-2.1s-.02-2.51-.18-2.86zm-.74-7.21c.22-.13.09-.57.22-1.9s.92-2.64.82-3.21-1.27-.66-1.49-.6-.44.48-.95 2.06a10.28 10.28 0 0 0 -.54 3.43 3.57 3.57 0 0 0 1.94.22zm5.85-14c.32-.22-.19-.79-.47-1s-1.56.25-2.63 1.36a14.44 14.44 0 0 0 -2.1 3.78 3.87 3.87 0 0 0 1.59.28c.25-.13.38-1 1.2-2.31a7.23 7.23 0 0 1 2.41-2.11zm-1 7.8c.13-.06.76.35.95.13s.19-.83.7-2.28a9.22 9.22 0 0 1 2-2.86c.12-.19-.42-.48-.7-.44a7.61 7.61 0 0 0 -1.81 2.38 11.12 11.12 0 0 0 -1.14 3.08zm-1.08 10.45a2 2 0 0 1 .48-1.25c.09-.19-.38-.53-.64-.35a2 2 0 0 0 -.63 2.22c.09.19.79.22.95.16s-.08-.18-.16-.78zm2.79-1.43a1.47 1.47 0 0 0 -1-.28c-.28 0-.25.76-.09.85a1.81 1.81 0 0 0 .95.1c.3-.07.3-.49.14-.67zm.51 3.71c.19-.06.41-.35.67-1a3.92 3.92 0 0 0 .28-1.3c0-.1-.5-.14-.57 0s-.13.7-.28 1-.54.92-.64 1.05.32.32.54.25zm-2.63.89a2 2 0 0 0 1.81-.16c.25-.19 0-.22-.07-.35a3.85 3.85 0 0 0 -1.27-.09c-.35 0-.38-.86-.38-.86s-.43 0-.5.16a1.08 1.08 0 0 0 .41 1.3zm6.31 8.79a6.13 6.13 0 0 1 -1.71-2.8 1.62 1.62 0 0 0 -.7.29c-.16.19 0 1.14 1.17 2.54a7.32 7.32 0 0 0 2.89 2.28.44.44 0 0 0 .38-.44c.07-.22-.38-.22-2.03-1.87zm-.22-3.05a3.26 3.26 0 0 0 .85 1.71 8.19 8.19 0 0 0 2.35 1.88c.29 0 .25-.29.22-.61s-.35-.22-1.42-1.27a7.71 7.71 0 0 1 -1.34-1.87c-.22-.19-.63.05-.66.16zm4.25.86c0-.13-.22-.22-.73-.64a3.94 3.94 0 0 1 -.79-1.2c-.13-.13-.62.23-.54.35a4.14 4.14 0 0 0 .63 1c.35.35 1.11 1 1.11 1a2.4 2.4 0 0 0 .32-.53zm4.22-4.41c.19-.29-.44-.62-.7-.57a1.73 1.73 0 0 0 -1.17 1.14c-.23.51.28 1.27.41 1.4s.54 0 .7-.23-.07-.31-.07-1 .68-.46.83-.74zm2.06-.48a.55.55 0 0 0 -.48.8c.16.22.57.12.95-.07s-.02-.73-.47-.73zm-2 5c-.51-.45-.07-.93-.25-1s-.7-.22-.86-.06a2 2 0 0 0 .6 1.81 1.51 1.51 0 0 0 1.53.41c.19 0 .09-.38 0-.7s-.51.03-1.02-.41zm2.73-3c-.1 0-.07 1.3-.16 1.55s-.67.23-.64.38.29.67.51.67.35-.1.7-.7a3.06 3.06 0 0 0 .38-1.81c-.09-.15-.73-.03-.79.01zm6.82 8.27a2.42 2.42 0 0 0 2.15-2.4c0-1.14-1.75-1.15-2.34-.83-2.48 1.37-1.14 3.37.19 3.33zm.38-2.75c.66-.14 1.17 0 .89.92s-1 1.3-1.65.85-.32-1.42.76-1.67zm12.78-15c-.13 0-.28.6-.25.76a5.29 5.29 0 0 0 2 1.05c.41 0 .28-.54.31-.73s-1.75-.94-2.06-1.02zm2 3.39c0-.34-2.41-1.44-2.54-1.42s-.31.63-.31.82a15.05 15.05 0 0 0 2.66 1.43c.16.13.19-.42.27-.77zm-3.27 2.73a11.2 11.2 0 0 0 2.19 1.3c.32.1.32-.31.32-.54a10.59 10.59 0 0 0 -2.22-1.53c-.13 0-.26.71-.26.83zm-4.25-4.63c-.06-.22-.73-.13-1.74.12s-1.38.65-1.27.77.35.76.57.73.32-.19.92-.61a2.59 2.59 0 0 1 1.46-.25c.16-.06.13-.54.06-.76zm-4.85 3.3a3.69 3.69 0 0 0 -.48 1.77 3 3 0 0 0 .57 1.53c.13.06.67-.07.73-.26s-.25-.48-.44-1.48.41-1.17.44-1.36-.69-.29-.82-.2zm7.14-.13c-.1.16.31 2.32.28 2.47s.51.13.83.1-.29-2.48-.38-2.6-.64-.14-.73.03zm-.92 5.84a2.77 2.77 0 0 0 1.23-1.15c.07-.12-.12-.22-.41-.22s-.32.38-.82.6-1 0-1.3 0-.26.77 0 1 .53.15 1.3-.23zm-4.06-.35c-.54-.22-.4-.83-.58-.92s-.53.22-.72.41 0 1 .41 1.3a2.88 2.88 0 0 0 1.9.19c.25-.09 0-.63-.06-.82s-.42.04-.95-.16zm-20.43-21.38c-.35-.16-.76.06-1.75.76s-1.34 1.54-1.26 1.71a1.26 1.26 0 0 0 1.26.35c.51-.16.29-.47.64-1.11s1.49-1 1.62-1.08-.16-.47-.51-.63zm-2.09 8.15c.25.06.85-.57.88-.95s-.41-.26-.76-.64.13-1.49.1-1.71-1.47-.24-1.62-.13c-.38.29-.22 2 0 2.48a2.74 2.74 0 0 0 1.4.95zm4.34-7.45c0 .31.22.25.67.31s1.27.51 1.46.51.28-.22.28-.7-1.24-1.24-1.68-1.24-.7.8-.73 1.12zm5.47 4.06a3.55 3.55 0 0 0 0-1.94c-.09-.25-1.21-.28-1.36 0s.38 1.93.54 2.12a.53.53 0 0 0 .82-.18zm-2.8 4.34c.15 0 .25-.09.95-.47a15.27 15.27 0 0 0 1.85-1.3c.35-.29-.35-.58-.54-.64l-1.14.76c-.48.32-1.4 1.05-1.56 1.14s.24.48.44.51zm-2.1.35c0-.19-.51 0-1.2-.06s-1.21-.81-1.46-.81-1 .76-1 1 .19.47 1.21.76a3.12 3.12 0 0 0 2.06 0c.29-.16.39-.7.39-.89zm11.9-11.2c.25-.22-.07-.5.32-1s.92-.26 1.14-.32.09-.67-.22-.82-.83 0-1.59.57a1.77 1.77 0 0 0 -.54 1.65.89.89 0 0 0 .89-.08zm1.68 3.78c.25-.1.19-.29.19-.57s-.25-.07-.7-.32-.35-.79-.44-.92-.86-.11-.95.16a1.64 1.64 0 0 0 .41 1.3 1.81 1.81 0 0 0 1.52.35zm2.95-5.27c-.19-.54-.77-.68-1-.44s-.26.86.12 1 1.1-.02.91-.56zm.47 3.62c.07-.32-.12-.54-.47-.7s-.25.19-.48.38a1.89 1.89 0 0 1 -.73.29c-.09 0 0 .66.1.89s.28.06.66-.13.89-.41.95-.73zm4.38-2.06a10.24 10.24 0 0 0 2.57 1.71c.45.06.45-.16.48-.44s-2.53-1.79-2.64-1.94-.41.51-.38.67zm1.62 3.58a.67.67 0 0 0 .54-.35c.13-.31-2.29-2.18-2.51-2s-.57.47-.57.6a29 29 0 0 0 2.57 1.75z" fill="#1d1d1b"/></svg>