<svg height="64" viewBox="0 0 64 64" width="64" xmlns="http://www.w3.org/2000/svg"><path d="m39.89 59.93a17.8 17.8 0 0 1 -9.35-2.51c-4.51-2.87-8.81-6-11.82-12.5l-.6-1.31c-2.44-5.24-3.45-7.41-3.21-13.78s4.55-13 8.49-17.06a34.52 34.52 0 0 1 15.7-8.65 2 2 0 0 1 .43 0c1.88 0 5.11 3.86 5.58 5.76a11.24 11.24 0 0 1 0 3.52 9.47 9.47 0 0 0 0 3.58 5.3 5.3 0 0 0 .69 1.16c1 1.36 1.73 2.74 1.11 5.8-.22 1.11-.47 2.05-.68 2.88-.52 2-.74 2.89-.36 3.77a13.52 13.52 0 0 0 .74 1.41 6.48 6.48 0 0 1 1.15 4.84 25.33 25.33 0 0 1 -.64 2.48c-.43 1.48-1.07 3.72-.7 4.57a11.39 11.39 0 0 0 .79 1.39 9.55 9.55 0 0 1 1.84 6.72c-.42 3.46-1 6.2-4.61 7.35a15.93 15.93 0 0 1 -4.55.58z" fill="#fff"/><path d="m34.58 20.36c-2.72.57-6 2.5-4.62 7.07s5 4.47 7.5 3.81a5.45 5.45 0 0 0 3.31-7.66c-1.66-4-4.77-3.51-6.19-3.22zm2.25 9.29c-2.09.65-3.94 0-4.65-2.6s.15-4.53 3.28-5a3.44 3.44 0 0 1 3.93 3.07 3.86 3.86 0 0 1 -2.56 4.53zm-13.28-5.44a15.88 15.88 0 0 1 2.53-3.75c.13-.19-.53-.68-.75-.63-.53.13-1.84 2.07-2.65 3.6a18.93 18.93 0 0 0 -1.47 4c0 .25.87.19 1.15.06s.22-1.16 1.19-3.28zm5.38 11c.12-2.6-1.81-3.3-3.35-3.35a3.23 3.23 0 0 0 -3.28 2.72 3.28 3.28 0 0 0 2.5 4c2.28.6 4-.78 4.13-3.37zm-5.13 1.9c-1-1.15-.69-3.56 2-3.56a1.89 1.89 0 0 1 1.47 2.75c-.63 1.31-2.47 1.97-3.47.81zm6.88 3.82a3 3 0 0 0 -.82.34 33.39 33.39 0 0 0 2.28 4.16c.13.09.22-.1.32-.28s-1.46-4.22-1.78-4.22zm-2.94 1.12c-.22.19 2.44 4.47 2.56 4.47a.44.44 0 0 0 .31-.12c.13-.1-2.17-4.31-2.28-4.54-.03-.06-.33 0-.59.19zm-1.94.75a2 2 0 0 0 -.69.5 52.1 52.1 0 0 0 2.89 4.81s.56-.15.68-.37a24.79 24.79 0 0 0 -2.88-4.94zm19.06 1.72c-.87-2 .82-5.75 1.22-8s-.9-3.25-1.78-5.28.19-3.94.94-7.66-.91-3.94-1.72-6 .34-5.65-.06-7.31-3.36-4.61-4-4.47a32.71 32.71 0 0 0 -14.85 8.2c-3.09 3.15-7.75 9.5-8 15.94s.82 8.15 3.66 14.31 6.87 9 11.19 11.78a16.61 16.61 0 0 0 12.47 1.72c2.43-.78 3-2.35 3.43-5.94s-1.62-5.29-2.5-7.29zm-8.06 11.16c-.19.22-1.84-.32-4.16-1.6a27.92 27.92 0 0 1 -4-2.56 2.86 2.86 0 0 1 2.88-.59 7.69 7.69 0 0 1 2.78 2.15 4.73 4.73 0 0 0 1.84 1.53c.38.25.86.85.66 1.07zm7-.07a21.27 21.27 0 0 1 -4.56.5 2.77 2.77 0 0 1 -1.5-.31s0-1.62-1.09-2.19a15.3 15.3 0 0 1 -2.65-2.25c-1.1-.87-2.1-1.81-3.53-1.65s-2.57 1-2.91.9-3.66-3.75-6.13-8.78a23.75 23.75 0 0 1 -2.62-14.12c.44-5.66 5.44-11.16 8.19-13.6s9.72-6.37 11.87-6.59c.44 0 3.28 2 3.19 4.22s-1.72 5.5-.5 7.31 2.12 2.69 1.74 4.95-2.09 5.22-.91 8.12 2.19 3.32 1.72 5.35-2.87 5.5-1.34 7.87 2.62 3.44 2.5 5.85-.22 4.08-1.44 4.42z" fill="#1d1d1b"/></svg>