<svg height="64" viewBox="0 0 64 64" width="64" xmlns="http://www.w3.org/2000/svg"><path d="m17.8 18.19c.25 0 .33-.37 1.87-2.33a10.18 10.18 0 0 1 4.13-2.75c.33-.25 0-.54-.38-1s-2 .75-3.58 2-3.09 2.86-3 3 .71 1.04.96 1.08zm28.5 19.92c-1.21-.21-2.5-1.5-3.33-1.75s-3 .79-3.38.79-.46-.83-.25-1.38 1.88-1.54 2.17-2.2a3.39 3.39 0 0 0 -.34-2.57c-.37-.41-3.75-.29-6.2-.37s-4.63-.46-5.88-.38-2.92 2.25-4 2.79-1.83-.29-5-.75a10 10 0 0 0 -6.75 2c-.33.46 0 1.84.08 2.21s.34.42 1.63.92a7.94 7.94 0 0 0 4.29.54 11.38 11.38 0 0 1 4-.25c1 .21 1.63 4.75 2.58 5.79s3.75.92 4.42 1.13 3.08 3.12 3.08 3.12a22 22 0 0 0 3 .79 9.13 9.13 0 0 0 2.88-.25c1.25-.25 2-1.83 2.21-2.29a4 4 0 0 1 .75-1.29c.33-.33 3.2-.71 4.29-1.12a3.81 3.81 0 0 0 1.87-2.34c.21-.62.59-2.41.29-2.87s-1.2-.06-2.41-.27zm-.46 4c-.54.33-4.71.41-5 .87s-1 3.38-2.08 3.5-3 .25-3.5-.12-2.71-3.42-3.13-3.42-4.66-.17-4.75-.87a29.67 29.67 0 0 0 -1.75-5.59 8.63 8.63 0 0 0 -4.16-.79 18.24 18.24 0 0 1 -3.8.29c-1.79-.08-2.2-.83-2.08-1.25.18-.61 2.13-1.37 4.5-.87s3.33 1.75 5.33 1.16 2.84-2.62 4.25-2.75 5.67.55 6.92.59 2.71-.34 2.79 0-1.08 1.14-1.38 1.87-.67 2.59-.3 3.17a2.24 2.24 0 0 0 1.5 1c.38 0 2.63-.84 3.34-.5a17.72 17.72 0 0 0 2.62 1.29c1.25.42 2 .08 2 .54a3.69 3.69 0 0 1 -1.32 1.88zm-30.84-.54c-.17.12-.09.91.16 1.12a7.51 7.51 0 0 0 2.71-.08c.29-.13.09-.5 0-.88s-2.63-.34-2.87-.16zm7.12 7.08a5.19 5.19 0 0 1 -2-.25c-.83-.17-1.79.42-1.62.58s.16.59.5.84.41-.17.83-.34a4.68 4.68 0 0 1 2 .09 10.1 10.1 0 0 0 2.67-.13c.29-.08 0-.67-.09-.92s-1.32.05-2.28.13zm10 3.46a1.11 1.11 0 0 0 .46 1.12c.42.25 1.54-.33 1.83-.54s0-.75-.08-.92a4.48 4.48 0 0 0 -2.2.34zm23.64-31.88c-3.92-6.71-6.84-9.08-11.63-11.54s-8.56-3.85-15.08-2.69c-14.92 2.73-20.75 11.52-22.29 17.77s-2.09 14.75 1.24 19.96 7.91 10.42 18 13.38 16 .29 21.34-2.34 7.79-6.16 9.54-12.45 2.79-15.38-1.12-22.09zm-13.88-9s.54-.79.79-.75a23.62 23.62 0 0 1 5.38 3.29c2.58 2 3.21 2.71 2.87 2.84a31 31 0 0 1 -4.79.87 5 5 0 0 1 -2.29-.25c-.5-.21-3.33-3.62-4.92-3.67a8.83 8.83 0 0 0 -3.2.42c-1.09.29-1.21.75-1.71.42s-1.25-1.79-1.09-2.13 1.46.42 2 .17 1.25-1.29 2.2-1 3.25.79 3.88.5a1.86 1.86 0 0 0 .88-.75zm-34.37 17.25c.08-.25 1.41-7.21 3.87-9.46.16-.14 2.79 1.05 2.75 1.38a71.33 71.33 0 0 1 -2.12 7c-.25.12-4.59 1.33-4.5 1.08zm40.25 23.67c-.92.54-2.17 1.5-2.17 1.5-.33.08-1.33-.42-1.08-.63s2.29-3.29 2.75-3.33 3.41.33 3.25.63a17.53 17.53 0 0 1 -2.75 1.83zm7.16-11.38c-.08-.12-5-4.66-5.25-4.62s-.75.67-.58.92 5.63 4.41 5.58 4.79-1.5 3.91-1.7 3.83-2.84-2.69-3.21-2.46-.71.67-.63.79 3.46 2.25 3.38 2.5a9 9 0 0 1 -.79 1.13 32.9 32.9 0 0 0 -3.46-2.83c-.21.08-.75.54-.59.75s3.34 3 3.34 3-3.75-.84-4.71-.38-3.25 4.81-3.83 5.42-1.92 2-2.92 2.21-8.42 1.29-14.67-1.34-10.5-4.79-14.37-10.91-2.84-13-2.63-13.13 5.17-1.25 5.5-2 1-3 1.46-4.21 1.5-4.41 1.08-5.08-3.5-1.67-3.58-1.92 4-5.91 12-8.25 11.38-1.37 13.88-.7 3.5 1.41 3.41 1.62-.21.42-.5.38-3.5-1.46-5.33-.75-1.75 1.25-3.13 1.33-3.62.08-4.12.37-.71.84-.5 1.09 3.17 0 3.21.37.5 3.29 1.91 3.34 4.34-.92 5.42-.8 3.92 4.3 6 4.21 6.92-1.46 7.62-1.16 2.88 2.83 3.59 10.33-.8 12.29-.88 12.16zm-32.2-15c-.8.08-2.07-.51-2.21-.42s-.25.87-.17 1a3 3 0 0 0 1.42.37 7 7 0 0 0 2.16-.16c.17-.09.13-.38.09-.79s-.5-.04-1.29.05zm17.41 2a3.85 3.85 0 0 0 1.84.08c.41-.08.37-.37.33-.67s-1.92-.16-1.92-.33-.5.8-.25 1.01zm13.92-1.77c.37 0 .21-.37.17-.66s-2.9-2.66-3.17-2.46a1.92 1.92 0 0 0 -.46 1.12 16.09 16.09 0 0 0 3.46 2zm.12 4.71c.25.13.25-.12.34-.5s-4.29-3.79-4.29-3.79a3 3 0 0 0 -.34 1c.04.1 4.04 3.19 4.29 3.31zm-4.17-.6a1.46 1.46 0 0 0 -.09 1.25 51.51 51.51 0 0 0 4.67 3.33c.21 0 .13-.46.08-.87s-4.53-3.71-4.66-3.71zm0 3.37a1.72 1.72 0 0 0 -.13 1 30.42 30.42 0 0 0 4.5 3.5c.71.29.13-.37.13-.67s-4.39-4.05-4.5-3.83zm-18.75-12c.33 0 1.7 2.46 2.33 3.3s3.54.41 5.12-.13a7.86 7.86 0 0 1 3.38-.12c.46-.05 1.54-3.09 1.46-3.59s-2-.91-2.75-1.25-.13-1-.25-1.41-1.71-1-3.79-1.17a23.57 23.57 0 0 0 -5.3.21 6.26 6.26 0 0 0 -.58 2.29c0 .5-3.44.14-3.5.25a4.65 4.65 0 0 0 .71 2.29c.3.33 2.8-.58 3.14-.63zm2.12-2.45c.27-.14 5.17-.05 5.29.25s.75 1.5 1.17 1.7 2 .42 2 .75.08.8-.21.84l-4.79.54c-1.17.12-1.54.58-2 .08s-1.21-2.71-1.63-2.91a.74.74 0 0 1 -.5-.63c-.07-.21.39-.46.64-.58z" fill="#1d1d1b"/></svg>