<svg height="64" viewBox="0 0 64 64" width="64" xmlns="http://www.w3.org/2000/svg"><path d="m24.84 26.09a1.48 1.48 0 0 0 -.84 2.56 1.6 1.6 0 0 0 2.56-.5c.44-.96-.56-2.08-1.72-2.06zm.88 1.75a.71.71 0 0 1 -1.13.22.65.65 0 0 1 .41-1.13c.48-.01.94.48.72.91zm-7.91-3.28a1.48 1.48 0 0 0 -.87 2.56 1.61 1.61 0 0 0 2.56-.5c.5-.97-.56-2.09-1.69-2.06zm.88 1.75a.71.71 0 0 1 -1.13.22.65.65 0 0 1 .44-1.13c.44-.01.91.48.69.91zm15.39.78a1.48 1.48 0 0 0 -2.69.34 1.61 1.61 0 0 0 1.61 2.08c1.06.03 1.6-1.42 1.08-2.42zm-1.19 1.56a.71.71 0 0 1 -.69-.92.66.66 0 0 1 1.19-.15c.22.42-.02 1.08-.5 1.07zm7 .18c1.07-.21 1.3-1.73.59-2.6a1.48 1.48 0 0 0 -2.56.88 1.62 1.62 0 0 0 2.02 1.72zm0-2c.31.38.21 1.06-.26 1.15a.71.71 0 0 1 -.87-.76.66.66 0 0 1 1.24-.37zm6.91.17a1.61 1.61 0 0 0 0-2.61c-.86-.67-2.16.17-2.34 1.28a1.48 1.48 0 0 0 2.34 1.33zm-1.51-1.31c.08-.49.65-.86 1-.56a.71.71 0 0 1 0 1.15.65.65 0 0 1 -1-.55zm2.52 15.05c.13-.44-2.5-8-2.5-8a7.43 7.43 0 0 0 1.31-1.74 6.75 6.75 0 0 0 .75-1.75 17.76 17.76 0 0 0 2.63-.91c.44-.31 1.25-1.69 1.25-4.12a5.54 5.54 0 0 0 -1.25-3.94c-.31-.31-1.5.31-1.5.31a14.72 14.72 0 0 0 -4.69-9.81c-4.88-4.72-10.94-6.38-19.06-2.63s-9.5 12.44-9.5 12.44-1.81-.06-2.25.47-.16 4.94 0 6.09 2.78 1.85 2.78 1.85-.16.18 1.06 2.4a10.34 10.34 0 0 0 3.85 3.57s-.57 5.21-.66 5.84 1 1.31 1 1.31-4.78 13.69-4.72 14 3.13 1.13 3.47.94 5.09-13.56 5.09-13.56a2.09 2.09 0 0 0 1.5-.6c.44-.59 2.38-5.22 2.38-5.22a10 10 0 0 1 1.16.16c.09.06.09 3.41.09 3.53s.78.44.87.56.22 13.63.6 13.72a11.58 11.58 0 0 0 3-.06c.12-.16-.44-13.59-.44-13.59a1.53 1.53 0 0 0 .56-.13c.13-.09-.12-4.09-.12-4.09l1.91-.35a10.85 10.85 0 0 0 1.9-.46l2 4.71a1.12 1.12 0 0 0 1.5.75s5.38 15.13 5.69 15.44 3.12-.56 3.37-1.12-5-14.94-5-14.94 1.85-.59 1.97-1.03zm-25.4-29.15a15.55 15.55 0 0 1 12.28-3.5 15 15 0 0 1 9.47 6.13c1.65 2.59 2.5 7.09 2.25 7.28a1.58 1.58 0 0 1 -.6.25s-3.19-6.19-3.4-6.16-.88.38-.66.66a64.38 64.38 0 0 1 3.37 5.81 9.29 9.29 0 0 1 -1.09.31s-2.53-4.25-2.75-4.31-.56.25-.5.41 2.63 4.15 2.41 4.22-1.35.25-1.35.25-1.9-2.94-2-2.94-.75.4-.69.59 2.25 2.44 2 2.56a15.58 15.58 0 0 1 -1.78.41 18.36 18.36 0 0 0 -1.09-1.94c-.13 0-.88.38-.81.47a11.71 11.71 0 0 1 1 1.72c-.1.06-2.57.72-9 .41s-9.22-1-11-1.78-1.94-1.88-1.94-1.88 2.28-6.12 5.88-8.97zm-7.85 15c0-.22-.28-3.91 0-4.09s2.22 1.5 5.44 2.15a37.28 37.28 0 0 0 11.59 1.16 52.4 52.4 0 0 0 12.91-1.81c1.91-.66 4.19-1.94 4.47-1.5a5.61 5.61 0 0 1 .22 2.81 4.46 4.46 0 0 1 -1.1 2.31c-.12.16-9.09 2.75-14.87 2.78s-12.41-.65-15.53-2.12-3.1-1.5-3.13-1.72zm4.1 29.31a8.33 8.33 0 0 1 -.82-.18s4.53-12.85 4.72-12.82.94.25.91.35-4.69 12.62-4.81 12.62zm13-14.81c0-.16 0-3.25 0-3.34s1.34-.13 1.43.09 0 3.28 0 3.28-1.4.1-1.43-.06zm1.59 11.19c-.13.12-.56.06-.56.06s-.25-9.75-.25-9.84h.31s.62 9.62.5 9.75zm8.5-11.6s-3-7.15-3.25-7.28-1.53.35-1.47.5.56 1.19.56 1.32a14.06 14.06 0 0 1 -4.34.93c-2 .13-4.13.22-4.13.22s.47-1 .35-1.12-1.5-.66-1.63-.47-2.06 6.62-2.47 6.69a6.83 6.83 0 0 1 -2.31-.47 3.42 3.42 0 0 1 -1.25-.66c0-.09 1.5-7.56 1.38-7.75s-1.6-.81-1.72-.56-.47 1.22-.47 1.22a8.18 8.18 0 0 1 -2.91-3.38c0-.08 2.57 1.91 8.66 2s8.41.16 12.69-.62a40.16 40.16 0 0 0 6.12-1.47l-2.06 3.12c-.19.29 1.09 2.79 1 2.79s-1.44-.75-1.56-.54-.35.66-.19.75 1.81.69 1.94.75a3.17 3.17 0 0 1 .4.72s-2.22-.72-2.31-.68-.19.81 0 .87a17.82 17.82 0 0 1 2.47.75c.09.16.34.53.22.56a18.94 18.94 0 0 0 -2.53-.56c-.1.16-.16.53 0 .66s2.46.59 2.4.78a26.54 26.54 0 0 1 -3.59.9zm7.16 13.94a1.39 1.39 0 0 1 -.82.22c-.09-.09-4.75-12.84-4.68-12.84s.71-.47.84-.35 4.75 12.82 4.66 12.94zm-28.29-37.37a9.14 9.14 0 0 1 2.79-3.19c.12 0-.54-.87-.72-.91a14.23 14.23 0 0 0 -2.69 3.22 12.21 12.21 0 0 0 -1.72 3.78 2.08 2.08 0 0 0 .85.41c.15-.03.49-1.41 1.49-3.31z" fill="#1d1d1b"/></svg>