<svg height="64" viewBox="0 0 64 64" width="64" xmlns="http://www.w3.org/2000/svg"><path d="m46.81 32.23c1.65-1.31 10.06-7.38 9.68-8.31s-1.65-1-5.15-1.19-13.22-1.06-13.22-1.06-1.19-2-2.6-4.41-4.28-7-5.71-6.84-2.29 1.87-3.6 4.43-3.59 7.66-3.59 7.66a46.42 46.42 0 0 0 -5.62 1.06 81.36 81.36 0 0 0 -9.28 3.35c-.5.21-.06 1.31.16 1.5s1.12.58 3.77 2.18a44.64 44.64 0 0 1 7 5.57c0 .18-3.47 12.56-3.69 13.78s-.5 2.78.09 3 2.07.18 4.82-1.35 11.4-6.12 11.56-6.15 1-.13 3.34 1.18 8.47 5.32 9.88 6.1 3 1.28 3.56.37 0-2.65-1.12-7.31-2.94-11.06-2.94-11.06a21.53 21.53 0 0 1 2.66-2.5zm-3.32 8.37a25.89 25.89 0 0 0 -3.49-1.6c-.12.12-.65.84-.4 1.09s4.12 2 4.12 2.19.32 1.69.32 1.69-5.25-3-5.47-3-.88.56-.72.78 6.31 3.56 6.47 3.78a5.48 5.48 0 0 1 .56 1.53c-.09 0-7.72-4.5-8-4.44s-.75.94-.66 1 8.91 5.19 9.07 5.44.87 2 .68 2-7.59-4.34-10.4-5.9-3.47-1.79-4-1.75a121.69 121.69 0 0 0 -11.47 5.75c-2.16 1.31-3 1.56-3.07 1.4s2.44-10.06 3-12.5.79-2.87.16-3.65a27.46 27.46 0 0 0 -5.47-4.22c-2.59-1.63-3.94-2.6-3.84-2.75.21-.35 6.44-2.38 9.22-3s3.28-.56 3.43-.69 2.82-5.59 4.19-8.12 1.88-3.16 2.1-3.16a81.12 81.12 0 0 1 5.18 7.73c1.27 2.25 1.52 2.8 1.71 2.8s9.35.81 12.5 1 4.63.41 4.5.63-5.47 4.12-8 6.31-3.71 2.98-3.65 3.35 1.53 6.38 1.43 6.31zm-14.12-24.28c-.13 0-2.64 4.36-2.31 4.69a3.18 3.18 0 0 0 1.18.44 32.48 32.48 0 0 0 2-4.72c-.06-.25-.75-.41-.87-.41z" fill="#1d1d1b"/></svg>